REM DIRINDEX 1\2,1\4,1\3\5,1\3\6,1\3\7
REM DIRNAME folder01,folder02,folder03,folder04,folder05,folder06,folder07
TITLE ""
FILE "CD2Track52.mp3" MP3
  TRACK 01 AUDIO
    TITLE "0:"
    INDEX 01 00:00:00
  TRACK 02 AUDIO
    TITLE "5:cjc083_2375"
    INDEX 01 00:00:29
  TRACK 03 AUDIO
    TITLE "0:"
    INDEX 01 00:01:50
  TRACK 04 AUDIO
    TITLE "6:cjc083_2376"
    INDEX 01 00:02:18
  TRACK 05 AUDIO
    TITLE "0:"
    INDEX 01 00:03:35
  TRACK 06 AUDIO
    TITLE "5:cjc083_2377"
    INDEX 01 00:03:74
  TRACK 07 AUDIO
    TITLE "0:"
    INDEX 01 00:05:24
  TRACK 08 AUDIO
    TITLE "6:cjc083_2378"
    INDEX 01 00:05:69
  TRACK 09 AUDIO
    TITLE "0:"
    INDEX 01 00:07:58
  TRACK 10 AUDIO
    TITLE "5:cjc083_2379"
    INDEX 01 00:08:30
  TRACK 11 AUDIO
    TITLE "0:"
    INDEX 01 00:09:53
  TRACK 12 AUDIO
    TITLE "6:cjc083_2380"
    INDEX 01 00:10:21
  TRACK 13 AUDIO
    TITLE "0:"
    INDEX 01 00:11:62
  TRACK 14 AUDIO
    TITLE "5:cjc083_2381"
    INDEX 01 00:12:32
  TRACK 15 AUDIO
    TITLE "0:"
    INDEX 01 00:13:43
  TRACK 16 AUDIO
    TITLE "6:cjc083_2382"
    INDEX 01 00:14:13
  TRACK 17 AUDIO
    TITLE "0:"
    INDEX 01 00:15:09
  TRACK 18 AUDIO
    TITLE "5:cjc083_2383"
    INDEX 01 00:15:48
  TRACK 19 AUDIO
    TITLE "0:"
    INDEX 01 00:17:12
  TRACK 20 AUDIO
    TITLE "6:cjc083_2384"
    INDEX 01 00:17:55
  TRACK 21 AUDIO
    TITLE "0:"
    INDEX 01 00:18:58
  TRACK 22 AUDIO
    TITLE "5:cjc083_2385"
    INDEX 01 00:19:26
  TRACK 23 AUDIO
    TITLE "0:"
    INDEX 01 00:20:47
  TRACK 24 AUDIO
    TITLE "6:cjc083_2386"
    INDEX 01 00:21:15
  TRACK 25 AUDIO
    TITLE "0:"
    INDEX 01 00:22:62
  TRACK 26 AUDIO
    TITLE "5:cjc083_2387"
    INDEX 01 00:23:24
  TRACK 27 AUDIO
    TITLE "0:"
    INDEX 01 00:24:43
  TRACK 28 AUDIO
    TITLE "6:cjc083_2388"
    INDEX 01 00:25:13
  TRACK 29 AUDIO
    TITLE "0:"
    INDEX 01 00:26:18
  TRACK 30 AUDIO
    TITLE "5:cjc083_2389"
    INDEX 01 00:26:58
  TRACK 31 AUDIO
    TITLE "0:"
    INDEX 01 00:28:21
  TRACK 32 AUDIO
    TITLE "6:cjc083_2390"
    INDEX 01 00:28:59
  TRACK 33 AUDIO
    TITLE "0:"
    INDEX 01 00:30:57
  TRACK 34 AUDIO
    TITLE "5:cjc083_2391"
    INDEX 01 00:31:22
  TRACK 35 AUDIO
    TITLE "0:"
    INDEX 01 00:32:48
  TRACK 36 AUDIO
    TITLE "6:cjc083_2392"
    INDEX 01 00:33:11
  TRACK 37 AUDIO
    TITLE "0:"
    INDEX 01 00:34:53
  TRACK 38 AUDIO
    TITLE "5:cjc083_2393"
    INDEX 01 00:35:15
  TRACK 39 AUDIO
    TITLE "0:"
    INDEX 01 00:36:33
  TRACK 40 AUDIO
    TITLE "6:cjc083_2394"
    INDEX 01 00:36:72
  TRACK 41 AUDIO
    TITLE "0:"
    INDEX 01 00:38:08
  TRACK 42 AUDIO
    TITLE "5:cjc083_2395"
    INDEX 01 00:38:47
  TRACK 43 AUDIO
    TITLE "0:"
    INDEX 01 00:39:74
  TRACK 44 AUDIO
    TITLE "6:cjc083_2396"
    INDEX 01 00:40:40
  TRACK 45 AUDIO
    TITLE "0:"
    INDEX 01 00:41:51
  TRACK 46 AUDIO
    TITLE "5:cjc083_2397"
    INDEX 01 00:42:21
  TRACK 47 AUDIO
    TITLE "0:"
    INDEX 01 00:43:33
  TRACK 48 AUDIO
    TITLE "6:cjc083_2398"
    INDEX 01 00:44:05
  TRACK 49 AUDIO
    TITLE "0:"
    INDEX 01 00:45:30
  TRACK 50 AUDIO
    TITLE "5:cjc083_2399"
    INDEX 01 00:46:00
  TRACK 51 AUDIO
    TITLE "0:"
    INDEX 01 00:47:17
  TRACK 52 AUDIO
    TITLE "6:cjc083_2400"
    INDEX 01 00:47:60
  TRACK 53 AUDIO
    TITLE "0:"
    INDEX 01 00:48:63
  TRACK 54 AUDIO
    TITLE "5:cjc083_2401"
    INDEX 01 00:49:27
  TRACK 55 AUDIO
    TITLE "0:"
    INDEX 01 00:50:50
  TRACK 56 AUDIO
    TITLE "6:cjc083_2402"
    INDEX 01 00:51:22
  TRACK 57 AUDIO
    TITLE "0:"
    INDEX 01 00:52:37
  TRACK 58 AUDIO
    TITLE "7:cjc083_2403"
    INDEX 01 00:54:01
  TRACK 59 AUDIO
    TITLE "0:"
    INDEX 01 01:05:28
